<svg xmlns="http://www.w3.org/2000/svg" width="73" height="176" viewBox="0 0 73 176">
  <g id="reproduction" transform="translate(-246 -628)">
    <path id="outer" d="M4,5C6.25,1,18.5-3,37-3S68.75,1,71,5s3,6.75,3,52-2.75,106-3,110-15.5,6-34,6-31.75-2-32-6S1,102.25,1,57,1.75,9,4,5Z" transform="translate(245 631)" fill="#456a9b"/>
    <g id="inner">
      <path id="frame" d="M8,0A124.726,124.726,0,0,1,29-2,145.293,145.293,0,0,1,51,0c4.418,1,7.5,4.582,8,8,0,0,.75.5,1,32s-1,34-1,34c-.5,2.761-2.239,4-5,5a186.249,186.249,0,0,1-25,2A162.832,162.832,0,0,1,5,79c-2.761-1-4.5-2.239-5-5,0,0-1.25-2.5-1-34S0,8,0,8C.5,3.582,3.582,1,8,0Z" transform="translate(253 640)" fill="#eeecf1"/>
      <g id="frame-2" data-name="frame" transform="translate(256 644)" fill="none">
        <path d="M5,0A124.726,124.726,0,0,1,26-2,145.293,145.293,0,0,1,48,0c2.761,1,4,2.239,4,5,0,0,1.25,16,1.5,31S53,65,53,65c-.5,2.761-2.239,5-5,5,0,0-11.25,1-22,1S5,70,5,70c-2.761,0-4.5-2.239-5-5,0,0-.75-14-.5-29S1,5,1,5C1,2.239,2.239,1,5,0Z" stroke="none"/>
        <path d="M 26 -1.5 C 15.7488899230957 -1.5 5.824787139892578 0.3519287109375 5.133308410644531 0.483551025390625 C 2.417922973632813 1.474151611328125 1.5 2.617706298828125 1.5 5 L 1.5 5.019500732421875 L 1.498481750488281 5.0389404296875 C 1.485988616943359 5.198799133300781 0.2467994689941406 21.19612121582031 -6.866455078125e-05 36.00833129882813 C -0.2411956787109375 50.47612762451172 0.4582328796386719 64.18629455566406 0.4976158142089844 64.94159698486328 C 0.9065399169921875 67.15127563476563 2.301311492919922 69.5 5 69.5 L 5.024330139160156 69.5 L 5.048549652099609 69.50235748291016 C 5.150810241699219 69.51233673095703 15.39698028564453 70.5 26 70.5 C 36.60349273681641 70.5 47.84344100952148 69.51194000244141 47.95573043823242 69.50196075439453 L 47.97782135009766 69.5 L 48 69.5 C 50.69868850708008 69.5 52.09346008300781 67.15127563476563 52.50238418579102 64.94159698486328 C 52.54176712036133 64.18629455566406 53.24119567871094 50.47612762451172 53.00006866455078 36.00833129882813 C 52.75320053100586 21.19612121582031 51.51401138305664 5.198799133300781 51.50151824951172 5.0389404296875 L 51.5 5.019500732421875 L 51.5 5 C 51.5 2.618743896484375 50.58316421508789 1.475242614746094 47.87048721313477 0.4849319458007813 C 47.10677719116211 0.3521728515625 36.25597381591797 -1.5 26 -1.5 M 26 -2 C 36.75 -2 48 0 48 0 C 50.76142120361328 1 52 2.238578796386719 52 5 C 52 5 53.25 21 53.5 36 C 53.75 51 53 65 53 65 C 52.5 67.76142120361328 50.76142120361328 70 48 70 C 48 70 36.75 71 26 71 C 15.25 71 5 70 5 70 C 2.238571166992188 70 0.5 67.76142120361328 0 65 C 0 65 -0.75 51 -0.5 36 C -0.25 21 1 5 1 5 C 1 2.238578796386719 2.238571166992188 1 5 0 C 5 0 15.25 -2 26 -2 Z" stroke="none" fill="#9e9e9e"/>
      </g>
      <g id="layout" transform="translate(259 672)" fill="#92aeb9">
        <path d="M 23 35.75 C 12.38496017456055 35.75 2.126650094985962 34.76116943359375 2.024270057678223 34.75117874145508 L 2.012170076370239 34.75 L 2 34.75 C 1.03505003452301 34.75 0.25 33.96495056152344 0.25 33 L 0.25 2 C 0.25 1.03505003452301 1.03505003452301 0.25 2 0.25 L 2.012160062789917 0.25 L 2.024270057678223 0.2488200068473816 C 2.126660108566284 0.2388300001621246 12.3860502243042 -0.75 23 -0.75 C 33.61611175537109 -0.75 44.865478515625 0.2390300035476685 44.97787094116211 0.2490199953317642 L 44.98891067504883 0.25 L 45 0.25 C 45.96495056152344 0.25 46.75 1.03505003452301 46.75 2 L 46.75 33 C 46.75 33.96495056152344 45.96495056152344 34.75 45 34.75 L 44.98891067504883 34.75 L 44.97787094116211 34.75098037719727 C 44.86547088623047 34.76097106933594 33.61528015136719 35.75 23 35.75 Z" stroke="none"/>
        <path d="M 23 -0.5 C 12.3991584777832 -0.5 2.150821685791016 0.4876594543457031 2.048538208007813 0.4976387023925781 L 2.024330139160156 0.5 L 2 0.5 C 1.172901153564453 0.5 0.5 1.172901153564453 0.5 2 L 0.5 33 C 0.5 33.82709884643555 1.172901153564453 34.5 2 34.5 L 2.024330139160156 34.5 L 2.048549652099609 34.50236129760742 C 2.150810241699219 34.5123405456543 12.39698028564453 35.5 23 35.5 C 33.60348892211914 35.5 44.84344100952148 34.51194000244141 44.95573043823242 34.50196075439453 L 44.97782135009766 34.5 L 45 34.5 C 45.82709884643555 34.5 46.5 33.82709884643555 46.5 33 L 46.5 2 C 46.5 1.172901153564453 45.82709884643555 0.5 45 0.5 L 44.97782135009766 0.5 L 44.95573043823242 0.4980392456054688 C 44.84344863891602 0.4880599975585938 33.60514068603516 -0.5 23 -0.5 M 23 -1 C 33.75 -1 45 0 45 0 C 46.10456848144531 0 47 0.8954315185546875 47 2 L 47 33 C 47 34.10456848144531 46.10456848144531 35 45 35 C 45 35 33.75 36 23 36 C 12.25 36 2 35 2 35 C 0.8954315185546875 35 0 34.10456848144531 0 33 L 0 2 C 0 0.8954315185546875 0.8954315185546875 0 2 0 C 2 0 12.25 -1 23 -1 Z" stroke="none" fill="#9e9e9e"/>
      </g>
      <text id="NOKIA" transform="translate(272 667)" fill="#456a9b" font-size="5.5" font-family="Arial-Black, Arial" font-weight="800"><tspan x="0" y="0">NOKIA</tspan></text>
      <g id="hole">
        <circle id="R" cx="1" cy="1" r="1" transform="translate(288 652)" fill="#515151"/>
        <circle id="C" cx="1" cy="1" r="1" transform="translate(281.5 651.5)" fill="#515151"/>
        <circle id="L" cx="1" cy="1" r="1" transform="translate(275 652)" fill="#515151"/>
      </g>
    </g>
    <g id="button">
      <path id="_9" data-name="9" d="M3,0A102.822,102.822,0,0,0,28,3,117.214,117.214,0,0,0,54,0s.5,4.25-2,7-9.75,4-24,4S7.25,9.75,5,7,3,0,3,0Z" transform="translate(254 779)" fill="#eeecf1"/>
      <path id="_8" data-name="8" d="M2,1A117.214,117.214,0,0,0,28,4,132.826,132.826,0,0,0,55,1s.75,4-1,7-11.75,4-26,4S4.5,11,3,8A14.173,14.173,0,0,1,2,1Z" transform="translate(254 767)" fill="#eeecf1"/>
      <path id="_7" data-name="7" d="M1,1A132.826,132.826,0,0,0,28,4,149.7,149.7,0,0,0,56,1s1,4-1,7-12.75,4-27,4S2.75,11,2,8A46.877,46.877,0,0,1,1,1Z" transform="translate(254 756)" fill="#eeecf1"/>
      <path id="_6" data-name="6" d="M0,0A149.7,149.7,0,0,0,28,3,167.9,167.9,0,0,0,57,0s.25,5.25-1,7-13.75,4-28,4S2,8.75,1,7,0,0,0,0Z" transform="translate(254 745)" fill="#eeecf1"/>
      <rect id="_5" data-name="5" width="21" height="19" rx="2" transform="translate(272 724)" fill="#eeecf1"/>
      <path id="_4" data-name="4" d="M16,1C15.5.5,1.5,1.75,1,3S.5,9.75,1,10a21.756,21.756,0,0,0,7.724.024C12.067,9.451,15.748,7.63,16,7,16.5,5.75,16.5,1.5,16,1Z" transform="translate(295 732)" fill="#eeecf1"/>
      <path id="_3" data-name="3" d="M1,1c.5-.5,14.5.75,15,2s.5,6.75,0,7a21.756,21.756,0,0,1-7.724.024C4.933,9.451,1.252,7.63,1,7,.5,5.75.5,1.5,1,1Z" transform="translate(253 732)" fill="#eeecf1"/>
      <path id="_2" data-name="2" d="M16,1C15.5.5.5,1.75,0,3s-.5,6.75,0,7S15.5,8.25,16,7,16.5,1.5,16,1Z" transform="translate(296 721)" fill="#eeecf1"/>
      <path id="_1" data-name="1" d="M0,1c.5-.5,15.5.75,16,2s.5,6.75,0,7S.5,8.25,0,7-.5,1.5,0,1Z" transform="translate(253 721)" fill="#eeecf1"/>
    </g>
  </g>
</svg>
